<?xml version="1.0" standalone="no"?>
<!DOCTYPE svg PUBLIC "-//W3C//DTD SVG 20010904//EN"
 "http://www.w3.org/TR/2001/REC-SVG-20010904/DTD/svg10.dtd">
<svg version="1.0" xmlns="http://www.w3.org/2000/svg"
 width="100%" height="100%" viewBox="0 0 632.000000 88.000000"
 preserveAspectRatio="xMidYMid meet">
<metadata>
Created by potrace 1.15, written by Peter Selinger 2001-2017
</metadata>
<g transform="translate(0.000000,88.000000) scale(0.100000,-0.100000)"
fill="#61dafb" stroke="none">
<path d="M102 864 c-43 -22 -79 -66 -92 -112 -16 -59 -13 -236 5 -280 17 -40
48 -77 80 -95 13 -8 115 -14 300 -17 l280 -5 3 -72 3 -73 -246 0 -245 0 0 35
0 36 -92 -3 -93 -3 -3 -52 c-4 -68 23 -131 74 -169 l37 -29 322 0 322 0 37 29
c60 45 76 91 76 224 0 120 -11 166 -53 210 -42 45 -51 47 -342 52 l-280 5 -3
73 -3 72 246 0 245 0 0 -35 0 -36 93 3 92 3 3 52 c4 68 -23 131 -74 169 l-37
29 -311 2 c-271 3 -315 1 -344 -13z"/>
<path d="M1790 520 c0 -392 1 -400 56 -452 42 -39 75 -48 180 -48 l94 0 0 90
0 90 -70 0 -70 0 0 340 0 340 -95 0 -95 0 0 -360z"/>
<path d="M3024 863 c3 -10 73 -202 155 -428 l149 -410 74 -3 74 -3 99 271 c54
149 101 267 105 263 4 -4 51 -125 103 -268 l95 -260 74 -3 73 -3 139 383 c76
211 147 405 157 431 l19 48 -101 -3 -101 -3 -91 -248 c-49 -136 -93 -244 -97
-240 -4 4 -47 117 -95 251 l-89 243 -89 -3 -89 -3 -91 -248 c-81 -224 -92
-246 -102 -225 -7 12 -49 125 -95 251 l-83 227 -99 0 c-90 0 -99 -2 -94 -17z"/>
<path d="M4505 866 c-37 -17 -80 -62 -94 -99 -7 -18 -11 -158 -11 -388 l0
-359 95 0 95 0 0 140 0 140 240 0 240 0 0 -140 0 -140 100 0 100 0 0 338 c0
191 -5 356 -11 381 -12 53 -38 88 -87 118 -36 22 -43 23 -337 23 -228 -1 -307
-4 -330 -14z m565 -281 l0 -105 -237 2 -238 3 -3 103 -3 102 241 0 240 0 0
-105z"/>
<path d="M5338 868 c5 -7 96 -130 201 -273 l191 -259 0 -158 0 -158 90 0 90 0
0 158 0 157 200 270 c110 148 200 271 200 272 0 2 -51 3 -112 2 l-113 0 -129
-165 c-70 -90 -131 -164 -135 -164 -4 0 -65 74 -136 165 l-130 164 -114 1
c-89 0 -111 -3 -103 -12z"/>
<path d="M1085 691 c-44 -27 -74 -63 -85 -102 -6 -19 -10 -122 -10 -229 0
-211 8 -248 61 -297 42 -39 73 -43 294 -43 227 0 251 4 299 48 51 49 56 73 56
300 0 199 -1 211 -23 253 -15 27 -38 52 -63 66 -37 22 -49 23 -269 23 -207 0
-233 -2 -260 -19z m425 -326 l0 -165 -165 0 -165 0 0 165 0 165 165 0 165 0 0
-165z"/>
<path d="M2289 687 c-18 -12 -44 -38 -56 -56 -22 -33 -23 -41 -23 -265 0 -231
0 -231 25 -269 14 -20 44 -46 66 -57 38 -20 55 -21 272 -18 225 3 233 4 265
26 18 13 42 42 53 63 19 38 20 56 17 268 l-3 228 -28 36 c-49 65 -59 67 -320
67 -227 0 -235 -1 -268 -23z m441 -322 l0 -165 -170 0 -170 0 0 165 0 165 170
0 170 0 0 -165z"/>
</g>
</svg>
